<?xml version="1.0" encoding="utf-8"?>
<?xml-stylesheet type="text/xsl" href="rss1.xsl"?>
<rss version="2.0" xmlns:atom="http://www.w3.org/2005/Atom" xmlns:content="http://purl.org/rss/1.0/modules/content/" xmlns:dc="http://purl.org/dc/elements/1.1/" xmlns:media="http://search.yahoo.com/mrss/">
<channel>
 <title>Getty</title>
 <link>http://www.gettyimg.com/</link>
 <atom:link href="http://www.gettyimg.com/" rel="self" type="application/rss+xml" />

 
                <item>
                <title><![CDATA[【Apple Music】WEB-RiP - Linkin Park - One More Light [Apple Music WEB-DL 1080p HD]]]></title>
                <link><![CDATA[https://sharemania.us/threads/linkin-park-one-more-light-apple-music-web-dl-1080p-hd.243413/]]></link>
                <description><![CDATA[<article>
<blockquote class="messageText SelectQuoteContainer ugc baseHtml">
<span style="font-size: 22px"><b>Linkin Park - One More Light [Apple Music WEB-DL 1080p HD]</b></span><br>
<br>
<img src="https://imgur.com/PAC2OZe.jpg" class="bbCodeImage LbImage" alt="[​IMG]" data-url="https://imgur.com/PAC2OZe.jpg" style=""><br>
<br>
<div class="bbCodeBlock bbCodeCode">
<div class="type">Code:</div>
<pre>General
Format                         : MPEG-4
Codec ID                       : M4V  (isom/iso4/M4V /mp42)
File size                      : 220 MiB
Duration                       : 4 min 30 s
Overall bit rate mode          : Variable
Overall bit rate               : 6 814 kb/s
Movie name                     : One More Light
Performer                      : LINKIN PARK
Genre                          : Alternative
ContentType                    : Music Video
Recorded date                  : UTC 2017-09-15 07:00:00
Encoded date                   : UTC 2024-03-06 10:40:59
Tagged date                    : UTC 2024-03-06 10:40:59
Copyright                      : ℗ 2017 Warner Records Inc.
Cover                          : Yes
Rating                         : None
GenreID                        : 1620
AlbumTitleID                   : 148662
AppleStoreCatalogID            : 1285766685

Video
ID                             : 2
Format                         : AVC
Format/Info                    : Advanced Video Codec
Format profile                 : High@L4
Format settings                : CABAC / 5 Ref Frames
Format settings, CABAC         : Yes
Format settings, Reference fra : 5 frames
Codec ID                       : avc1
Codec ID/Info                  : Advanced Video Coding
Duration                       : 4 min 30 s
Bit rate                       : 6 555 kb/s
Maximum bit rate               : 14.4 Mb/s
Width                          : 1 920 pixels
Height                         : 812 pixels
Display aspect ratio           : 2.35:1
Frame rate mode                : Constant
Frame rate                     : 23.976 (24000/1001) FPS
Color space                    : YUV
Chroma subsampling             : 4:2:0
Bit depth                      : 8 bits
Scan type                      : Progressive
Bits/(Pixel*Frame)             : 0.175
Stream size                    : 212 MiB (96%)
Title                          : Core Media Video
Language                       : English
Encoded date                   : UTC 2024-03-06 10:41:05
Tagged date                    : UTC 2024-04-30 08:37:15
Color range                    : Limited
Color primaries                : BT.709
Transfer characteristics       : BT.709
Matrix coefficients            : BT.709
Codec configuration box        : avcC

Audio
ID                             : 1
Format                         : AAC LC
Format/Info                    : Advanced Audio Codec Low Complexity
Codec ID                       : mp4a-40-2
Duration                       : 4 min 30 s
Duration_LastFrame             : -12 ms
Bit rate mode                  : Variable
Bit rate                       : 248 kb/s
Maximum bit rate               : 370 kb/s
Channel(s)                     : 2 channels
Channel layout                 : L R
Sampling rate                  : 48.0 kHz
Frame rate                     : 46.875 FPS (1024 SPF)
Compression mode               : Lossy
Stream size                    : 8.00 MiB (4%)
Title                          : Core Media Audio
Encoded date                   : UTC 2024-03-06 10:40:59
Tagged date                    : UTC 2024-04-30 08:37:15

Text
ID                             : 3
Format                         : EIA-608
Codec ID                       : c608
Duration                       : 4 min 11 s
Bit rate mode                  : Variable
Bit rate                       : 72 b/s
Maximum bit rate               : 976 b/s
Frame rate                     : 0.191 FPS
Stream size                    : 2.21 KiB (0%)
Title                          : Core Media Closed Caption
Language                       : English
Forced                         : No
Encoded date                   : UTC 2024-03-06 10:41:05
Tagged date                    : UTC 2024-04-30 08:37:15
</pre>
</div>
<div class="bbCodeBlock bbCodeVfcHH HiddenContent">
<div class="attribution type">Hidden Content:</div>
<blockquote>You must reply before you can see the hidden data contained here.</blockquote>
</div>
<div class="messageTextEndMarker">&nbsp;</div>
</blockquote>
</article>]]></description>
                <author><![CDATA[Ron001]]></author>
                </item>

                
                <item>
                <title><![CDATA[【Actresses】Lola Le Lann and Tracy Gotoas - Ganglands S02 E01(2021)1080p]]></title>
                <link><![CDATA[https://sharemania.us/threads/lola-le-lann-and-tracy-gotoas-ganglands-s02-e01-2021-1080p.243412/]]></link>
                <description><![CDATA[<article>
<blockquote class="messageText SelectQuoteContainer ugc baseHtml">
Lola Le Lann and Tracy Gotoas - Ganglands S02 E01(2021)1080p<br>
<br>
<a href="https://imgbox.com/izl784Ai" target="_blank" class="externalLink" rel="nofollow"><img src="https://thumbs2.imgbox.com/5a/70/izl784Ai_t.jpg" class="bbCodeImage LbImage" alt="[​IMG]" data-url="https://thumbs2.imgbox.com/5a/70/izl784Ai_t.jpg"></a> <a href="https://imgbox.com/9CgT4A4R" target="_blank" class="externalLink" rel="nofollow"><img src="https://thumbs2.imgbox.com/86/6b/9CgT4A4R_t.jpg" class="bbCodeImage LbImage" alt="[​IMG]" data-url="https://thumbs2.imgbox.com/86/6b/9CgT4A4R_t.jpg"></a> <a href="https://imgbox.com/vPeIKyWO" target="_blank" class="externalLink" rel="nofollow"><img src="https://thumbs2.imgbox.com/c9/0d/vPeIKyWO_t.jpg" class="bbCodeImage LbImage" alt="[​IMG]" data-url="https://thumbs2.imgbox.com/c9/0d/vPeIKyWO_t.jpg"></a> <a href="https://imgbox.com/NtvCVY0d" target="_blank" class="externalLink" rel="nofollow"><img src="https://thumbs2.imgbox.com/0f/dc/NtvCVY0d_t.jpg" class="bbCodeImage LbImage" alt="[​IMG]" data-url="https://thumbs2.imgbox.com/0f/dc/NtvCVY0d_t.jpg"></a> <a href="https://imgbox.com/wNTAn2bZ" target="_blank" class="externalLink" rel="nofollow"><img src="https://thumbs2.imgbox.com/c1/69/wNTAn2bZ_t.jpg" class="bbCodeImage LbImage" alt="[​IMG]" data-url="https://thumbs2.imgbox.com/c1/69/wNTAn2bZ_t.jpg"></a> <a href="https://imgbox.com/DlW90Txw" target="_blank" class="externalLink" rel="nofollow"><img src="https://thumbs2.imgbox.com/18/6b/DlW90Txw_t.jpg" class="bbCodeImage LbImage" alt="[​IMG]" data-url="https://thumbs2.imgbox.com/18/6b/DlW90Txw_t.jpg"></a><br>
Duration: 0:01:00 Resolution: 1920x1080 Format: mp4 Size: 33.43 MB<br>
<a href="https://filejoker.net/z85xo1rw64fc" target="_blank" class="externalLink" rel="nofollow">https://filejoker.net/z85xo1rw64fc</a>
<div class="messageTextEndMarker">&nbsp;</div>
</blockquote>
</article>]]></description>
                <author><![CDATA[piqeros]]></author>
                </item>

                </channel></rss>